<mxfile host="app.diagrams.net" modified="2024-01-12T14:47:51.129Z" agent="Mozilla/5.0 (Linux; Android 10; K) AppleWebKit/537.36 (KHTML, like Gecko) Chrome/120.0.0.0 Mobile Safari/537.36" version="22.1.18" etag="z2Xr3lIhH9EwIgjWS9yp" type="github">
  <diagram name="Page-1" id="hcxmvx2doepVyolBl6bY">
    <mxGraphModel>
      <root>
        <mxCell id="0" />
        <mxCell id="1" parent="0" />
      </root>
    </mxGraphModel>
  </diagram>
</mxfile>
